<svg preserveAspectRatio="none" overflow="visible" style="display: block;" width="14.6667" height="18.3333" viewBox="0 0 14.6667 18.3333" fill="none" xmlns="http://www.w3.org/2000/svg">
<g id="Container">
<path id="Icon" d="M1.83333 18.3333C1.32917 18.3333 0.897569 18.1538 0.538542 17.7948C0.179514 17.4358 0 17.0042 0 16.5V1.83333C0 1.32917 0.179514 0.897569 0.538542 0.538542C0.897569 0.179514 1.32917 0 1.83333 0H9.16667L14.6667 5.5V16.5C14.6667 17.0042 14.4872 17.4358 14.1281 17.7948C13.7691 18.1538 13.3375 18.3333 12.8333 18.3333H1.83333V18.3333M8.25 6.41667V1.83333H1.83333V1.83333V1.83333V16.5V16.5V16.5H12.8333V16.5V16.5V6.41667H8.25V6.41667M1.83333 1.83333V1.83333V6.41667V6.41667V1.83333V6.41667V6.41667V16.5V16.5V16.5V16.5V16.5V16.5V1.83333V1.83333V1.83333V1.83333" fill="#002114"/>
</g>
</svg>
